<svg width="301" height="41" viewBox="0 0 301 41" fill="none" xmlns="http://www.w3.org/2000/svg">
    <path fill-rule="evenodd" clip-rule="evenodd" d="M0 35.6123H29.2676V6.34473H0V35.6123ZM20.2512 26.9942C19.7393 27.7052 19.0282 28.2456 18.118 28.6154C17.1794 28.9852 16.0702 29.1843 14.7902 29.1843H8.21996V12.7443H14.392C16.2124 12.7443 17.6345 13.1141 18.63 13.8252C19.6255 14.5647 20.1375 15.5886 20.1375 16.9539C20.1375 17.7503 19.9668 18.4045 19.5971 19.0018C19.2273 19.5706 18.7153 20.0257 18.0043 20.367C18.9713 20.6799 19.7108 21.1918 20.2228 21.9029C20.7348 22.5855 20.9908 23.4388 20.9908 24.4343C21.0192 25.4298 20.7632 26.2831 20.2512 26.9942ZM16.0702 18.9449C16.5252 18.5751 16.7528 18.0347 16.7528 17.3805C16.7528 16.0721 15.8711 15.418 14.0792 15.418H11.5478V19.5137H14.0792C14.9609 19.5137 15.6151 19.3146 16.0702 18.9449ZM14.5058 22.102H11.5478V26.5391H14.4489C15.4444 26.5391 16.2124 26.34 16.7528 25.9702C17.2932 25.6005 17.5492 25.0601 17.5492 24.349C17.5776 22.8415 16.5537 22.102 14.5058 22.102ZM36.5774 35.6123H65.845V6.34473H36.5774V35.6123ZM56.8286 26.9942C56.3167 27.7052 55.6056 28.2456 54.6954 28.6154C53.7568 28.9852 52.6475 29.1843 51.3676 29.1843H44.8258V12.7443H50.9979C52.8182 12.7443 54.2403 13.1141 55.2358 13.8252C56.2313 14.5647 56.7433 15.5886 56.7433 16.9539C56.7433 17.7503 56.5726 18.4045 56.2029 19.0018C55.8331 19.5706 55.3212 20.0257 54.6101 20.367C55.5771 20.6799 56.3167 21.1918 56.8286 21.9029C57.3406 22.5855 57.5966 23.4388 57.5966 24.4343C57.5681 25.4298 57.3122 26.2831 56.8286 26.9942ZM52.6475 18.9449C53.1026 18.5751 53.3302 18.0347 53.3302 17.3805C53.3302 16.0721 52.4484 15.418 50.6566 15.418H48.1251V19.5137H50.6566C51.5383 19.5137 52.1925 19.3146 52.6475 18.9449ZM51.0832 22.102H48.1251V26.5391H51.0263C52.0218 26.5391 52.7898 26.34 53.3302 25.9702C53.8706 25.6005 54.1266 25.0601 54.1266 24.349C54.155 22.8415 53.1311 22.102 51.0832 22.102ZM73.1263 35.6123H102.394V6.34473H73.1263V35.6123ZM94.1455 28.1603C93.4629 28.5301 92.6665 28.8429 91.7848 29.042C90.8746 29.2696 89.936 29.3549 88.9405 29.3549C87.6321 29.3549 86.4375 29.1558 85.3852 28.7861C84.3328 28.3879 83.451 27.8474 82.7115 27.1364C81.972 26.4253 81.4316 25.5436 81.0334 24.4912C80.6352 23.4388 80.4646 22.2727 80.4646 20.9643C80.4646 19.6844 80.6637 18.5467 81.0619 17.4943C81.4601 16.4703 82.0574 15.5886 82.7969 14.8491C83.5648 14.1096 84.475 13.5407 85.5274 13.171C86.5798 12.7728 87.7744 12.5737 89.0827 12.5737C89.9929 12.5737 90.8462 12.659 91.671 12.8581C92.4958 13.0572 93.2354 13.3132 93.9464 13.683V16.8685C93.3207 16.4419 92.6096 16.129 91.8701 15.9015C91.1022 15.6739 90.3058 15.5602 89.5378 15.5886C88.4001 15.5886 87.433 15.7877 86.6366 16.2144C85.8402 16.6126 85.2145 17.2667 84.8163 18.0347C84.3897 18.8311 84.1906 19.7981 84.1906 20.9359C84.1906 22.0736 84.3897 23.0691 84.8163 23.8655C85.2145 24.6619 85.8402 25.2876 86.6082 25.7142C87.4046 26.1409 88.3432 26.34 89.4525 26.34C91.159 26.34 92.7234 25.8849 94.174 25.0032V28.1603H94.1455Z" fill="black" style="fill:black;fill-opacity:1;"/>
    <path d="M113.019 10.0536H121.399C123.711 10.0536 125.686 10.4833 127.323 11.3427C128.98 12.2022 130.239 13.4504 131.098 15.0874C131.958 16.704 132.387 18.6685 132.387 20.9808C132.387 23.2931 131.947 25.278 131.068 26.9355C130.208 28.5725 128.96 29.831 127.323 30.7109C125.686 31.5703 123.701 32 121.368 32H113.019V10.0536ZM121.123 27.9484C123.169 27.9484 124.734 27.355 125.819 26.1681C126.924 24.9608 127.476 23.2317 127.476 20.9808C127.476 18.7503 126.934 17.0519 125.849 15.8855C124.785 14.6987 123.22 14.1052 121.153 14.1052H117.746V27.9484H121.123ZM146.106 9.59316C147.763 9.59316 149.257 9.85918 150.587 10.3912C151.938 10.9232 153.083 11.6906 154.025 12.6933C154.987 13.6755 155.723 14.8726 156.235 16.2845C156.746 17.676 157.002 19.2516 157.002 21.0115C157.002 22.7508 156.746 24.3264 156.235 25.7384C155.723 27.1503 154.987 28.3576 154.025 29.3603C153.083 30.363 151.938 31.1304 150.587 31.6624C149.257 32.1944 147.763 32.4604 146.106 32.4604C144.448 32.4604 142.944 32.1944 141.594 31.6624C140.263 31.1304 139.118 30.363 138.156 29.3603C137.214 28.3576 136.488 27.1503 135.976 25.7384C135.465 24.3264 135.209 22.7508 135.209 21.0115C135.209 19.2516 135.465 17.676 135.976 16.2845C136.488 14.8726 137.214 13.6755 138.156 12.6933C139.118 11.6906 140.263 10.9232 141.594 10.3912C142.944 9.85918 144.448 9.59316 146.106 9.59316ZM146.106 28.3474C147.354 28.3474 148.428 28.0609 149.329 27.488C150.229 26.8945 150.914 26.0556 151.385 24.971C151.856 23.8865 152.091 22.5666 152.091 21.0115C152.091 19.4563 151.856 18.1364 151.385 17.0519C150.914 15.9674 150.229 15.1386 149.329 14.5656C148.428 13.9927 147.354 13.7062 146.106 13.7062C144.857 13.7062 143.783 13.9927 142.883 14.5656C141.982 15.1386 141.297 15.9674 140.826 17.0519C140.356 18.1364 140.12 19.4563 140.12 21.0115C140.12 22.5666 140.356 23.8865 140.826 24.971C141.297 26.0556 141.982 26.8945 142.883 27.488C143.783 28.0609 144.857 28.3474 146.106 28.3474ZM177.26 32C176.564 29.524 175.879 27.048 175.204 24.572C174.549 22.096 173.904 19.62 173.27 17.144C172.656 19.62 172.022 22.096 171.367 24.572C170.712 27.048 170.037 29.524 169.341 32H164.338C163.294 28.419 162.292 24.7971 161.33 21.1342C160.368 17.4714 159.457 13.7778 158.598 10.0536H163.755C164.266 12.8979 164.808 15.7423 165.381 18.5866C165.954 21.4309 166.558 24.2241 167.192 26.9662C168.563 21.6253 169.863 16.2948 171.091 10.9744H175.695C176.309 13.5937 176.933 16.2129 177.567 18.8322C178.222 21.4309 178.887 24.0297 179.562 26.6285C180.176 23.9274 180.77 21.1854 181.342 18.4024C181.915 15.6195 182.447 12.8365 182.939 10.0536H188.003C187.144 13.7778 186.233 17.4714 185.271 21.1342C184.31 24.7971 183.307 28.419 182.263 32H177.26ZM205.076 32C203.48 29.4422 201.864 26.8843 200.227 24.3264C198.59 21.7481 196.973 19.2516 195.377 16.837V32H190.834V10.0536H195.623C197.28 12.5296 198.907 15.0158 200.503 17.5123C202.12 19.9883 203.726 22.5052 205.322 25.0631V10.0536H209.865V32H205.076ZM214.544 10.0536H219.271V27.887H229.677V32H214.544V10.0536ZM241.876 9.59316C243.533 9.59316 245.027 9.85918 246.357 10.3912C247.707 10.9232 248.853 11.6906 249.795 12.6933C250.756 13.6755 251.493 14.8726 252.005 16.2845C252.516 17.676 252.772 19.2516 252.772 21.0115C252.772 22.7508 252.516 24.3264 252.005 25.7384C251.493 27.1503 250.756 28.3576 249.795 29.3603C248.853 30.363 247.707 31.1304 246.357 31.6624C245.027 32.1944 243.533 32.4604 241.876 32.4604C240.218 32.4604 238.714 32.1944 237.363 31.6624C236.033 31.1304 234.887 30.363 233.926 29.3603C232.984 28.3576 232.258 27.1503 231.746 25.7384C231.235 24.3264 230.979 22.7508 230.979 21.0115C230.979 19.2516 231.235 17.676 231.746 16.2845C232.258 14.8726 232.984 13.6755 233.926 12.6933C234.887 11.6906 236.033 10.9232 237.363 10.3912C238.714 9.85918 240.218 9.59316 241.876 9.59316ZM241.876 28.3474C243.124 28.3474 244.198 28.0609 245.098 27.488C245.999 26.8945 246.684 26.0556 247.155 24.971C247.626 23.8865 247.861 22.5666 247.861 21.0115C247.861 19.4563 247.626 18.1364 247.155 17.0519C246.684 15.9674 245.999 15.1386 245.098 14.5656C244.198 13.9927 243.124 13.7062 241.876 13.7062C240.627 13.7062 239.553 13.9927 238.653 14.5656C237.752 15.1386 237.067 15.9674 236.596 17.0519C236.125 18.1364 235.89 19.4563 235.89 21.0115C235.89 22.5666 236.125 23.8865 236.596 24.971C237.067 26.0556 237.752 26.8945 238.653 27.488C239.553 28.0609 240.627 28.3474 241.876 28.3474ZM271.073 32C270.541 30.3835 270.009 28.7976 269.477 27.2424H260.575C260.043 28.8181 259.511 30.4039 258.979 32H253.915C255.306 28.153 256.718 24.3981 258.151 20.7352C259.603 17.0723 261.066 13.5118 262.54 10.0536H267.635C269.149 13.696 270.623 17.3588 272.055 21.0421C273.508 24.705 274.91 28.3576 276.26 32H271.073ZM261.926 23.3135H268.095C267.604 21.8811 267.093 20.459 266.561 19.047C266.049 17.6146 265.538 16.2129 265.026 14.8419C263.962 17.6453 262.929 20.4692 261.926 23.3135ZM278.931 10.0536H287.31C289.622 10.0536 291.597 10.4833 293.234 11.3427C294.892 12.2022 296.15 13.4504 297.01 15.0874C297.869 16.704 298.299 18.6685 298.299 20.9808C298.299 23.2931 297.859 25.278 296.979 26.9355C296.119 28.5725 294.871 29.831 293.234 30.7109C291.597 31.5703 289.612 32 287.279 32H278.931V10.0536ZM287.034 27.9484C289.08 27.9484 290.646 27.355 291.73 26.1681C292.835 24.9608 293.388 23.2317 293.388 20.9808C293.388 18.7503 292.845 17.0519 291.761 15.8855C290.697 14.6987 289.131 14.1052 287.065 14.1052H283.658V27.9484H287.034Z" fill="black" style="fill:black;fill-opacity:1;"/>
</svg>
